<svg width="14" height="14" viewBox="0 0 14 14" fill="none" xmlns="http://www.w3.org/2000/svg">
<g clip-path="url(#clip0_52:13365)">
<path d="M8.54193 7.00089L13.7763 1.76625C13.9203 1.62216 13.9998 1.42991 14 1.22492C14 1.01981 13.9206 0.827343 13.7763 0.683473L13.3176 0.224888C13.1734 0.0804485 12.9812 0.00134277 12.776 0.00134277C12.5711 0.00134277 12.3788 0.0804485 12.2346 0.224888L7.00023 5.45918L1.76559 0.224888C1.62161 0.0804485 1.42925 0.00134277 1.22415 0.00134277C1.01927 0.00134277 0.826911 0.0804485 0.682927 0.224888L0.224 0.683473C-0.0746667 0.98214 -0.0746667 1.46793 0.224 1.76625L5.45852 7.00089L0.224 12.2353C0.0799024 12.3796 0.000569106 12.5719 0.000569106 12.7769C0.000569106 12.9818 0.0799024 13.1741 0.224 13.3183L0.682813 13.7769C0.826797 13.9212 1.01927 14.0004 1.22403 14.0004C1.42914 14.0004 1.6215 13.9212 1.76548 13.7769L7.00011 8.54248L12.2345 13.7769C12.3787 13.9212 12.571 14.0004 12.7759 14.0004H12.7761C12.9811 14.0004 13.1733 13.9212 13.3175 13.7769L13.7762 13.3183C13.9202 13.1742 13.9997 12.9818 13.9997 12.7769C13.9997 12.5719 13.9202 12.3796 13.7762 12.2354L8.54193 7.00089Z" fill="#6F2205"/>
</g>
<defs>
<clipPath id="clip0_52:13365">
<rect width="14" height="14" fill="white"/>
</clipPath>
</defs>
</svg>
